<svg xmlns="http://www.w3.org/2000/svg" viewBox="0 0 387.02 388"><defs><style>.cls-1{fill:#313b44;}</style></defs><g id="Layer_2" data-name="Layer 2"><g id="Layer_1-2" data-name="Layer 1"><path class="cls-1" d="M193.51,0c-16,40.3,16.05,80.6,0,120.91"/><path class="cls-1" d="M199,0c-16,40.3,16.05,80.6,0,120.91H188C204.06,80.6,172,40.3,188,0Z"/><path class="cls-1" d="M193.51,267.09c-16,40.31,16.05,80.61,0,120.91"/><path class="cls-1" d="M199,267.09C183,307.4,215.06,347.7,199,388H188c16-40.3-16.05-80.6,0-120.91Z"/><path class="cls-1" d="M233.85,4.24c-24.08,36.08-1.07,82.18-25.14,118.26"/><path class="cls-1" d="M239.22,5.38c-24.07,36.09-1.06,82.18-25.14,118.27l-10.75-2.29c24.08-36.08,1.06-82.18,25.14-118.26Z"/><path class="cls-1" d="M178.31,265.5c-24.07,36.08-1.06,82.18-25.13,118.26"/><path class="cls-1" d="M183.69,266.64c-24.08,36.08-1.06,82.18-25.14,118.26l-10.75-2.28c24.08-36.09,1.06-82.18,25.14-118.27Z"/><path class="cls-1" d="M272.42,16.77c-31.05,30.29-18.13,80.17-49.18,110.46"/><path class="cls-1" d="M277.44,19c-31.05,30.29-18.13,80.16-49.18,110.45l-10-4.47C249.27,94.7,236.35,44.83,267.4,14.54Z"/><path class="cls-1" d="M163.78,260.77c-31.05,30.29-18.12,80.17-49.18,110.46"/><path class="cls-1" d="M168.8,263c-31.05,30.29-18.12,80.16-49.17,110.45l-10-4.47c31.06-30.29,18.13-80.16,49.18-110.45Z"/><path class="cls-1" d="M307.54,37.05c-36.67,23.17-34.39,74.64-71.07,97.82"/><path class="cls-1" d="M312,40.28c-36.67,23.17-34.4,74.64-71.07,97.82L232,131.64C268.7,108.46,266.42,57,303.1,33.82Z"/><path class="cls-1" d="M150.55,253.13c-36.67,23.18-34.4,74.65-71.07,97.82"/><path class="cls-1" d="M155,256.36C118.32,279.54,120.6,331,83.93,354.18L75,347.72c36.67-23.17,34.39-74.64,71.06-97.82Z"/><path class="cls-1" d="M337.68,64.19c-40.69,15-49.16,65.86-89.85,80.9"/><path class="cls-1" d="M341.36,68.27c-40.69,15-49.16,65.86-89.85,80.91L244.15,141C284.84,126,293.32,75.15,334,60.1Z"/><path class="cls-1" d="M139.19,242.91C98.5,258,90,308.77,49.34,323.81"/><path class="cls-1" d="M142.87,247C102.18,262,93.71,312.85,53,327.9l-7.36-8.17c40.69-15,49.17-65.86,89.86-80.91Z"/><path class="cls-1" d="M361.52,97c-42.93,6.25-61.78,54.2-104.71,60.45"/><path class="cls-1" d="M364.27,101.76C321.34,108,302.49,156,259.56,162.21l-5.5-9.52c42.93-6.25,61.79-54.2,104.71-60.45Z"/><path class="cls-1" d="M130.21,230.55C87.28,236.8,68.43,284.75,25.5,291"/><path class="cls-1" d="M133,235.31C90,241.56,71.18,289.51,28.25,295.76l-5.5-9.52C65.68,280,84.54,232,127.46,225.79Z"/><path class="cls-1" d="M378,134.05c-43.29-2.81-71.7,40.17-115,37.36"/><path class="cls-1" d="M379.71,139.28c-43.28-2.81-71.7,40.17-115,37.36l-3.4-10.45c43.29,2.8,71.7-40.17,115-37.37Z"/><path class="cls-1" d="M124,216.59C80.71,213.78,52.3,256.76,9,254"/><path class="cls-1" d="M125.69,221.81C82.41,219,54,262,10.71,259.18l-3.4-10.46c43.29,2.81,71.7-40.17,115-37.36Z"/><path class="cls-1" d="M386.45,173.72C344.69,162,308,198.11,266.2,186.36"/><path class="cls-1" d="M387,179.19c-41.76-11.75-78.48,24.38-120.24,12.64l-1.15-10.94c41.76,11.75,78.49-24.38,120.24-12.63Z"/><path class="cls-1" d="M120.82,201.64C79.06,189.89,42.33,226,.57,214.28"/><path class="cls-1" d="M121.39,207.11C79.63,195.36,42.91,231.49,1.15,219.74L0,208.81c41.76,11.75,78.49-24.38,120.24-12.64Z"/><path class="cls-1" d="M386.45,214.28c-38.4-20.17-81.84,7.53-120.25-12.64"/><path class="cls-1" d="M385.87,219.74c-38.4-20.17-81.84,7.54-120.24-12.63l1.15-10.94c38.4,20.18,81.84-7.53,120.24,12.64Z"/><path class="cls-1" d="M120.82,186.36C82.41,166.19,39,193.89.57,173.72"/><path class="cls-1" d="M120.24,191.83C81.84,171.65,38.4,199.36,0,179.19l1.15-10.93c38.4,20.17,81.84-7.54,120.24,12.63Z"/><path class="cls-1" d="M378,254c-33.37-27.72-81.62-9.65-115-37.36"/><path class="cls-1" d="M376.32,259.18c-33.37-27.72-81.62-9.65-115-37.37l3.4-10.45c33.37,27.72,81.61,9.65,115,37.36Z"/><path class="cls-1" d="M124,171.41C90.63,143.7,42.38,161.77,9,134.05"/><path class="cls-1" d="M122.3,176.64c-33.37-27.72-81.62-9.65-115-37.36l3.4-10.46c33.37,27.72,81.61,9.65,115,37.37Z"/><path class="cls-1" d="M361.52,291c-26.88-34.05-77.83-26.4-104.71-60.45"/><path class="cls-1" d="M358.77,295.76c-26.88-34.05-77.83-26.41-104.71-60.45l5.5-9.52c26.88,34,77.83,26.4,104.71,60.45Z"/><path class="cls-1" d="M130.21,157.45C103.33,123.4,52.38,131.05,25.5,97"/><path class="cls-1" d="M127.46,162.21c-26.88-34.05-77.83-26.4-104.71-60.45l5.5-9.52c26.88,34.05,77.83,26.41,104.71,60.45Z"/><path class="cls-1" d="M337.68,323.81c-19.21-38.89-70.64-42-89.85-80.9"/><path class="cls-1" d="M334,327.9c-19.21-38.9-70.63-42-89.85-80.91l7.36-8.17c19.21,38.9,70.64,42,89.85,80.91Z"/><path class="cls-1" d="M139.19,145.09c-19.21-38.89-70.64-42-89.85-80.9"/><path class="cls-1" d="M135.52,149.18c-19.22-38.9-70.64-42-89.86-80.91L53,60.1c19.21,38.9,70.64,42,89.85,80.91Z"/><path class="cls-1" d="M307.54,351c-10.7-42-60.36-55.78-71.07-97.82"/><path class="cls-1" d="M303.1,354.18c-10.71-42-60.36-55.78-71.07-97.82l8.89-6.46c10.71,42,60.36,55.78,71.07,97.82Z"/><path class="cls-1" d="M150.55,134.87c-10.71-42-60.36-55.78-71.07-97.82"/><path class="cls-1" d="M146.1,138.1C135.4,96.06,85.74,82.32,75,40.28l8.89-6.46c10.7,42,60.36,55.78,71.06,97.82Z"/><path class="cls-1" d="M272.42,371.23c-1.73-43.35-47.45-67.11-49.18-110.46"/><path class="cls-1" d="M267.4,373.46C265.67,330.12,220,306.35,218.22,263l10-4.47C230,301.88,275.71,325.65,277.44,369Z"/><path class="cls-1" d="M163.78,127.23c-1.73-43.35-47.44-67.11-49.18-110.46"/><path class="cls-1" d="M158.76,129.46C157,86.12,111.32,62.35,109.58,19l10-4.47C121.36,57.88,167.07,81.65,168.8,125Z"/><path class="cls-1" d="M233.85,383.76c7.31-42.76-32.46-75.51-25.14-118.26"/><path class="cls-1" d="M228.47,384.9c7.32-42.75-32.45-75.5-25.14-118.26l10.75-2.29c-7.31,42.76,32.46,75.51,25.14,118.27Z"/><path class="cls-1" d="M178.31,122.5C185.63,79.75,145.86,47,153.18,4.24"/><path class="cls-1" d="M172.94,123.65c7.32-42.76-32.46-75.51-25.14-118.27L158.55,3.1C151.23,45.85,191,78.6,183.69,121.36Z"/></g></g></svg>